<mxfile host="65bd71144e">
    <diagram id="RD69P7APoGmj4CVlXvpW" name="Page-1">
        <mxGraphModel dx="1356" dy="633" grid="1" gridSize="10" guides="1" tooltips="1" connect="1" arrows="1" fold="1" page="1" pageScale="1" pageWidth="850" pageHeight="1100" math="0" shadow="0">
            <root>
                <mxCell id="0"/>
                <mxCell id="1" parent="0"/>
                <mxCell id="3" value="&lt;table cellpadding=&quot;4&quot; cellspacing=&quot;0&quot; border=&quot;1&quot; style=&quot;width: 100% ; height: 100% ; font-size: 16px&quot;&gt;&lt;tbody&gt;&lt;tr&gt;&lt;th style=&quot;background-color: rgb(214 , 214 , 214)&quot;&gt;&lt;font style=&quot;font-size: 16px&quot;&gt;Access Pattern&lt;/font&gt;&lt;/th&gt;&lt;th style=&quot;background-color: rgb(214 , 214 , 214)&quot;&gt;&lt;font style=&quot;font-size: 16px&quot;&gt;Read or Write&lt;/font&gt;&lt;/th&gt;&lt;td style=&quot;background-color: rgb(214 , 214 , 214)&quot;&gt;&lt;b&gt;&lt;font style=&quot;font-size: 16px&quot;&gt;Description (listed actions)&lt;/font&gt;&lt;/b&gt;&lt;/td&gt;&lt;td style=&quot;background-color: rgb(214 , 214 , 214)&quot;&gt;&lt;b&gt;&lt;font style=&quot;font-size: 16px&quot;&gt;Type (&lt;br&gt;Single Item / &lt;br&gt;Multiple Item / All)&lt;/font&gt;&lt;/b&gt;&lt;/td&gt;&lt;td style=&quot;background-color: rgb(214 , 214 , 214)&quot;&gt;&lt;b&gt;&lt;font style=&quot;font-size: 16px&quot;&gt;Key Attribute&lt;/font&gt;&lt;/b&gt;&lt;/td&gt;&lt;/tr&gt;&lt;tr&gt;&lt;td&gt;&lt;font style=&quot;font-size: 16px&quot;&gt;Get User&lt;/font&gt;&lt;/td&gt;&lt;td&gt;&lt;font style=&quot;font-size: 16px&quot;&gt;Read&lt;/font&gt;&lt;/td&gt;&lt;td&gt;&lt;div style=&quot;text-align: left&quot;&gt;&lt;font style=&quot;font-size: 16px&quot;&gt;Get a the current user accessing the database.&lt;/font&gt;&lt;/div&gt;&lt;div style=&quot;text-align: left&quot;&gt;&lt;font style=&quot;font-size: 16px&quot;&gt;&lt;br&gt;&lt;/font&gt;&lt;/div&gt;&lt;div style=&quot;text-align: left&quot;&gt;&lt;font style=&quot;font-size: 16px&quot;&gt;Actions used: get_user&lt;br&gt;&lt;/font&gt;&lt;/div&gt;&lt;/td&gt;&lt;td&gt;&lt;font style=&quot;font-size: 16px&quot;&gt;Single Item&lt;/font&gt;&lt;/td&gt;&lt;td&gt;&lt;font style=&quot;font-size: 16px&quot;&gt;user email&lt;/font&gt;&lt;/td&gt;&lt;/tr&gt;&lt;tr&gt;&lt;td&gt;&lt;font style=&quot;font-size: 16px&quot;&gt;Create User&lt;/font&gt;&lt;/td&gt;&lt;td&gt;&lt;font style=&quot;font-size: 16px&quot;&gt;Write&lt;/font&gt;&lt;/td&gt;&lt;td style=&quot;text-align: left&quot;&gt;&lt;font style=&quot;font-size: 16px&quot;&gt;Create a user when they register.&lt;br&gt;&lt;br&gt;Actions used: upsert_user&lt;br&gt;&lt;/font&gt;&lt;/td&gt;&lt;td&gt;&lt;font style=&quot;font-size: 16px&quot;&gt;Single Item&lt;/font&gt;&lt;/td&gt;&lt;td&gt;&lt;font style=&quot;font-size: 16px&quot;&gt;user email&lt;/font&gt;&lt;/td&gt;&lt;/tr&gt;&lt;tr&gt;&lt;td&gt;&lt;font style=&quot;font-size: 16px&quot;&gt;Get the best fitting &lt;br&gt;breakdown &lt;br&gt;for a &lt;br&gt;word by its id&lt;/font&gt;&lt;/td&gt;&lt;td&gt;&lt;font style=&quot;font-size: 16px&quot;&gt;Read&lt;/font&gt;&lt;/td&gt;&lt;td style=&quot;text-align: left&quot;&gt;&lt;font style=&quot;font-size: 16px&quot;&gt;&lt;font style=&quot;font-size: 16px&quot;&gt;For a word, retrieve a breakdown in the following order:&lt;br&gt;&lt;br&gt;&lt;b&gt;(1)&lt;/b&gt; an official breakdown whose is_verified attribute is &quot;true&quot;&lt;br&gt;&lt;b&gt;(2)&lt;/b&gt; a user submitted breakdown submitted by the current user&amp;nbsp;&lt;br&gt;&lt;b&gt;(3)&lt;/b&gt; an official breakdown that was submitted by another&lt;br&gt;&lt;b&gt;(4)&lt;/b&gt; an official breakdown whose is_inference attribute is &quot;true&quot;&lt;/font&gt;&lt;br&gt;&lt;b&gt;(5)&lt;/b&gt; return a breakdown not found error&lt;br&gt;&lt;br&gt;Actions used:&lt;br&gt;- get_official_breakdown_by_word_id&lt;br&gt;- is_breakdown_verified&lt;br&gt;- get_user_submitted_breakdown_by_user_email_and_word_id&lt;br&gt;- get_official_breakdown_submitted_by_another_user&lt;br&gt;- get_morpheme_families&lt;br&gt;&lt;/font&gt;&lt;/td&gt;&lt;td&gt;&lt;font style=&quot;font-size: 16px&quot;&gt;&lt;br&gt;&lt;/font&gt;&lt;/td&gt;&lt;td&gt;&lt;font style=&quot;font-size: 16px&quot;&gt;word id,&amp;nbsp;&lt;br&gt;user email,&lt;br&gt;&lt;br&gt;&lt;/font&gt;&lt;/td&gt;&lt;/tr&gt;&lt;tr&gt;&lt;td&gt;&lt;font style=&quot;font-size: 16px&quot;&gt;Create a breakdown&lt;/font&gt;&lt;/td&gt;&lt;td&gt;&lt;font style=&quot;font-size: 16px&quot;&gt;Write&lt;/font&gt;&lt;/td&gt;&lt;td style=&quot;text-align: left&quot;&gt;&lt;font style=&quot;font-size: 16px&quot;&gt;Create a user submitted breakdown for the current user, &lt;br&gt;or an official breakdown if the user's attribute is_admin is &quot;true&quot;&lt;br&gt;&lt;span&gt;&#9;&lt;/span&gt;&lt;br&gt;Action used:&lt;br&gt;- upsert_breakdown&lt;br&gt;&lt;span&gt;&#9;&lt;/span&gt;- get_morphemes&lt;br&gt;&lt;/font&gt;&lt;/td&gt;&lt;td&gt;&lt;font style=&quot;font-size: 16px&quot;&gt;Single Item&lt;/font&gt;&lt;/td&gt;&lt;td&gt;&lt;font style=&quot;font-size: 16px&quot;&gt;&lt;br&gt;&lt;/font&gt;&lt;/td&gt;&lt;/tr&gt;&lt;tr&gt;&lt;td&gt;&lt;font style=&quot;font-size: 16px&quot;&gt;Get a word by its id&lt;/font&gt;&lt;/td&gt;&lt;td&gt;&lt;font style=&quot;font-size: 16px&quot;&gt;Read&lt;/font&gt;&lt;/td&gt;&lt;td style=&quot;text-align: left&quot;&gt;&lt;font style=&quot;font-size: 16px&quot;&gt;Get all data for a word (except a breakdown)&lt;br&gt;&lt;br&gt;Action used: get_word_by_id&lt;/font&gt;&lt;/td&gt;&lt;td&gt;&lt;font style=&quot;font-size: 16px&quot;&gt;Single Item&lt;/font&gt;&lt;/td&gt;&lt;td&gt;&lt;font style=&quot;font-size: 16px&quot;&gt;&lt;br&gt;&lt;/font&gt;&lt;/td&gt;&lt;/tr&gt;&lt;tr&gt;&lt;td&gt;&lt;font style=&quot;font-size: 16px&quot;&gt;Get morphemes&lt;/font&gt;&lt;/td&gt;&lt;td&gt;&lt;font style=&quot;font-size: 16px&quot;&gt;Read&lt;/font&gt;&lt;/td&gt;&lt;td style=&quot;text-align: left&quot;&gt;&lt;font style=&quot;font-size: 16px&quot;&gt;Get all morphemes for a given list of morhpeme ids.&lt;br&gt;&lt;br&gt;Actions used: get_morphemes&lt;/font&gt;&lt;/td&gt;&lt;td&gt;&lt;font style=&quot;font-size: 16px&quot;&gt;Multiple Items&lt;/font&gt;&lt;/td&gt;&lt;td&gt;&lt;font style=&quot;font-size: 16px&quot;&gt;&lt;br&gt;&lt;/font&gt;&lt;/td&gt;&lt;/tr&gt;&lt;tr&gt;&lt;td&gt;&lt;font style=&quot;font-size: 16px&quot;&gt;Get morpheme families&lt;/font&gt;&lt;/td&gt;&lt;td&gt;&lt;font style=&quot;font-size: 16px&quot;&gt;Read&lt;/font&gt;&lt;/td&gt;&lt;td style=&quot;text-align: left&quot;&gt;&lt;font style=&quot;font-size: 16px&quot;&gt;Get all morpheme families for a given list of morpheme family ids&lt;br&gt;&lt;br&gt;Actions used: get_morpheme_families&lt;/font&gt;&lt;/td&gt;&lt;td&gt;&lt;font style=&quot;font-size: 16px&quot;&gt;Multiple Items&lt;/font&gt;&lt;/td&gt;&lt;td&gt;&lt;font style=&quot;font-size: 16px&quot;&gt;&lt;br&gt;&lt;/font&gt;&lt;/td&gt;&lt;/tr&gt;&lt;/tbody&gt;&lt;/table&gt; " style="verticalAlign=top;align=center;overflow=fill;fontSize=12;fontFamily=Helvetica;html=1;container=1;sketch=1;labelBackgroundColor=#FFFFFF;fontColor=#000000;whiteSpace=wrap;" parent="1" vertex="1">
                    <mxGeometry x="570" y="120" width="1010" height="890" as="geometry">
                        <mxRectangle x="620" y="140" width="740" height="100" as="alternateBounds"/>
                    </mxGeometry>
                </mxCell>
            </root>
        </mxGraphModel>
    </diagram>
</mxfile>
